# xmcd
#
# Track frame offsets: 
#        150
#        21155
#        38468
#        56820
#        75421
#        97906
#        120292
#        133607
#        154440
#        177410
#        192472
#        214067
#        233194
#        246575
#        268180
#        293885
#
# Disc length: 4307 seconds
#
# Revision: 1
# Processed by: cddbd v1.5.2PL0 Copyright (c) Steve Scherf et al.
# Submitted via: ExactAudioCopy v0.99pb4
#
DISCID=e310d110
DTITLE=Vasco Rossi - Tuttovasco Vivere Una Favola cdD2
DYEAR=2006
DGENRE=Italian Music
TTITLE0=C'è Chi dice no
TTITLE1=Ti taglio la gola
TTITLE2=Cosa succede in citta
TTITLE3=Lunedi
TTITLE4=Blasco Rossi
TTITLE5=Cosa C e
TTITLE6=Fegato, Fegato spappolato
TTITLE7=Deviazioni
TTITLE8=Colpa d Alfredo
TTITLE9=Portatemi Dio
TTITLE10=Splendida giornata
TTITLE11=Vado al massimo
TTITLE12=Sono ancora in coma
TTITLE13=Vita spericolata
TTITLE14=Bollicine
TTITLE15=Siamo solo noi
EXTD=
EXTT0=
EXTT1=
EXTT2=
EXTT3=
EXTT4=
EXTT5=
EXTT6=
EXTT7=
EXTT8=
EXTT9=
EXTT10=
EXTT11=
EXTT12=
EXTT13=
EXTT14=
EXTT15=
PLAYORDER=
